<svg xmlns="http://www.w3.org/2000/svg" version="1.1" xmlns:xlink="http://www.w3.org/1999/xlink" width="1500" height="166" viewBox="0 0 1500 166"><svg xml:space="preserve" width="1500" height="166" data-version="2" data-id="lg_QEVXS1RH9NKnARXI54" viewBox="0 0 166 166" x="0" y="0"><rect width="100%" height="100%" fill="transparent"></rect><path fill="#fff" d="M81.336 1.447c-44.122 0-79.889 35.767-79.889 79.889s35.767 79.889 79.889 79.889 79.889-35.767 79.889-79.89c-.05-44.101-35.787-79.838-79.89-79.888m0 153.12c-40.444 0-73.232-32.787-73.232-73.231S40.892 8.104 81.336 8.104s73.231 32.788 73.231 73.232c-.046 40.427-32.804 73.185-73.231 73.231"></path><path fill="#fff" d="m109.447 25.094-2.963 5.962a55.962 55.962 0 0 1 31.44 50.28c0 31.253-25.335 56.588-56.588 56.588s-56.588-25.335-56.588-56.588 25.335-56.588 56.588-56.588V18.09c-34.928 0-63.245 28.318-63.245 63.246s28.317 63.245 63.245 63.245 63.245-28.317 63.245-63.245a62.58 62.58 0 0 0-35.134-56.242"></path><path fill="#fff" d="M64.692 64.692H34.734V97.98h29.958v29.959H97.98v-29.96h29.959V64.692h-29.96V34.734H64.692Zm6.658-23.3h19.972V71.35h29.958v19.972H91.322v29.958H71.35V91.322H41.39V71.35h29.96ZM91.322 18.09h6.657v6.658h-6.657z"></path></svg></svg>