<svg xmlns="http://www.w3.org/2000/svg" version="1.1" xmlns:xlink="http://www.w3.org/1999/xlink" width="1500" height="1500" viewBox="0 0 1500 1500"><rect width="1500" height="1500" x="0" y="0" id="background" stroke="transparent" fill="#ffffff"></rect><svg xml:space="preserve" width="1000" height="1000" data-version="2" data-id="lg_QEVXS1RH9NKnARXI54" viewBox="0 0 571 129" x="250" y="250"><rect width="100%" height="100%" fill="transparent"></rect><rect width="525.83" height="155.81" x="-262.92" y="-77.91" fill="#00b8cc" rx="0" ry="0" transform="translate(353.7 64.5)scale(.8056)"></rect><rect width="151.36" height="155.81" x="-75.68" y="-77.91" fill="#00b8cc" rx="0" ry="0" transform="translate(66.46 64.5)scale(.8056)"></rect><g transform="translate(353.96 65.29)"><filter id="a" width="140%" height="140%" x="-20%" y="-20%"><feGaussianBlur in="SourceAlpha"></feGaussianBlur><feOffset result="oBlur"></feOffset><feFlood flood-color="#F75CFF" flood-opacity="1"></feFlood><feComposite in2="oBlur" operator="in"></feComposite><feMerge><feMergeNode></feMergeNode><feMergeNode in="SourceGraphic"></feMergeNode></feMerge></filter><g filter="url(#a)"><path fill="#fff" d="M-138.035 21.32q-3.78 0-6.82-1.51-3.05-1.51-4.84-3.69l1.55-6.51q1.33 2.64 3.97 4.77 2.65 2.12 6.33 2.12 3.35 0 5.55-2.12 2.19-2.13 2.19-5.25 0-2.26-1.08-3.73-1.09-1.46-2.46-2.31-1.37-.85-2.17-1.23l-5.2-2.64q-1.22-.66-3.04-1.84-1.82-1.18-3.19-3.26-1.37-2.08-1.37-5.39 0-3.21 1.49-5.71t4.16-3.92q2.66-1.42 6.11-1.42 3.4 0 6 1.21 2.59 1.2 4.06 2.48l-1.56 6.51q-1.18-1.98-3.49-3.73-2.32-1.74-5.25-1.74-2.83 0-4.53 1.67-1.7 1.68-1.7 4.14 0 1.88.87 3.11.88 1.23 1.99 1.94 1.11.71 1.82 1.08l5.28 2.65q.95.47 2.39 1.32 1.44.85 2.86 2.24 1.41 1.4 2.36 3.4.94 2.01.94 4.84 0 3.64-1.72 6.47-1.73 2.84-4.7 4.44-2.98 1.61-6.8 1.61"></path><rect width="24.88" height="43.64" x="-12.44" y="-21.82" fill="none" rx="0" ry="0" transform="translate(-136.75)"></rect><path fill="#fff" d="m-91.995 20.75-18.08-26.21 14.54-16.29h6.33l-14.45 16.25 18.23 26.25Zm-24.03 0v-42.5h5.38v42.5Z"></path><rect width="30.6" height="42.5" x="-15.3" y="-21.25" fill="none" rx="0" ry="0" transform="translate(-100.22)"></rect><path fill="#fff" d="M-78.625 20.75v-42.5h5.38v42.5Z"></path><rect width="5.38" height="42.5" x="-2.69" y="-21.25" fill="none" rx="0" ry="0" transform="translate(-75.44)"></rect><path fill="#fff" d="m-25.925 22.17-29.75-31.88v30.46h-5.1v-43.92l29.75 31.88v-30.46h5.1Z"></path><rect width="34.85" height="45.34" x="-17.43" y="-22.67" fill="none" rx="0" ry="0" transform="translate(-42.85)"></rect><path fill="#fff" d="M-19.695 20.75-2.645-3.9l-12.23-17.85h6.37l5.71 8.5q.9 1.32 1.75 2.72.85 1.39 1.7 3.09.85-1.7 1.7-3.09.85-1.4 1.75-2.72l5.81-8.5h6.09L3.775-4.09l17.05 24.84h-6.57L4.715 6.58q-.99-1.51-2.03-3.09-1.04-1.58-2.22-3.8-1.18 2.22-2.22 3.8-1.04 1.58-2.03 3.09l-9.63 14.17Z"></path><rect width="40.52" height="42.5" x="-20.26" y="-21.25" fill="none" rx="0" ry="0" transform="translate(1.06)"></rect><path fill="#fff" d="M27.055 20.75v-42.5h10.53q4.2 0 7.11 1.28 2.9 1.27 4.69 3.33 1.8 2.05 2.63 4.46.82 2.41.82 4.72 0 2.27-.8 4.68-.8 2.4-2.6 4.48-1.79 2.08-4.72 3.35-2.93 1.28-7.13 1.28h-5.15v14.92Zm5.38-19.74h4.87q3.82 0 6.04-1.34 2.22-1.35 3.16-3.4.95-2.06.95-4.23 0-2.08-.92-4.16-.92-2.07-3.12-3.44-2.19-1.37-6.11-1.37h-4.87Z"></path><rect width="25.78" height="42.5" x="-12.89" y="-21.25" fill="none" rx="0" ry="0" transform="translate(40.45)"></rect><path fill="#fff" d="M61.055 20.75v-42.5h20.97v4.82h-15.59v9.06h12.28v4.82h-12.28v18.98h15.59v4.82Z"></path><rect width="20.97" height="42.5" x="-10.48" y="-21.25" fill="none" rx="0" ry="0" transform="translate(72.04)"></rect><path fill="#fff" d="M90.945 20.75v-42.5h10.67q4.02 0 6.9 1.61 2.88 1.6 4.46 4.22 1.58 2.62 1.58 5.74 0 3.5-1.98 6.28-1.99 2.79-5.43 4.11l14.26 20.54h-6.28L101.615 1.2h-5.29v19.55Zm5.38-24.08h5.29q2.74 0 4.47-1.02 1.72-1.01 2.55-2.59.82-1.59.82-3.24 0-2.97-2.15-4.86-2.15-1.89-5.69-1.89h-5.29Z"></path><rect width="30.46" height="42.5" x="-15.23" y="-21.25" fill="none" rx="0" ry="0" transform="translate(106.67)"></rect><path fill="#fff" d="M120.645-16.93v-4.82h28.05v4.82h-11.33v37.68h-5.38v-37.68Z"></path><rect width="28.05" height="42.5" x="-14.03" y="-21.25" fill="none" rx="0" ry="0" transform="translate(135.17)"></rect></g></g><path fill="#d5e1ff" d="M64.985 32.975c-17.062 0-30.893 13.831-30.893 30.893S47.923 94.76 64.985 94.76s30.893-13.83 30.893-30.892c-.02-17.054-13.84-30.874-30.893-30.893m0 59.211c-15.64 0-28.319-12.679-28.319-28.318s12.68-28.319 28.319-28.319 28.318 12.68 28.318 28.319c-.018 15.633-12.685 28.3-28.318 28.318"></path><path fill="#d5e1ff" d="m75.855 42.12-1.145 2.305a21.64 21.64 0 0 1 12.157 19.443c0 12.085-9.797 21.882-21.882 21.882s-21.883-9.797-21.883-21.882S52.9 41.985 64.985 41.985v-2.574c-13.507 0-24.457 10.95-24.457 24.457s10.95 24.457 24.457 24.457 24.457-10.95 24.457-24.457a24.2 24.2 0 0 0-13.587-21.749"></path><path fill="#d5e1ff" d="M58.549 57.432H46.964v12.872h11.585v11.585H71.42V70.304h11.585V57.432H71.42V45.847H58.549Zm2.574-9.01h7.723v11.584h11.585v7.723H68.846v11.585h-7.723V67.73H49.538v-7.723h11.585Zm7.723-9.011h2.575v2.574h-2.575z"></path></svg></svg>